<?xml version="1.0" encoding="UTF-8"?>
<!DOCTYPE svg PUBLIC "-//W3C//DTD SVG 1.1//EN" "http://www.w3.org/Graphics/SVG/1.1/DTD/svg11.dtd">
<!-- Creator: CorelDRAW 2020 (64-Bit) -->
<svg xmlns="http://www.w3.org/2000/svg" xml:space="preserve" width="3.14961in" height="1.1811in" version="1.1" style="shape-rendering:geometricPrecision; text-rendering:geometricPrecision; image-rendering:optimizeQuality; fill-rule:evenodd; clip-rule:evenodd"
viewBox="0 0 3149.61 1181.1"
 xmlns:xlink="http://www.w3.org/1999/xlink"
 xmlns:xodm="http://www.corel.com/coreldraw/odm/2003">
 <defs>
  <style type="text/css">
   <![CDATA[
    .fil3 {fill:none}
    .fil0 {fill:#29AA58}
    .fil2 {fill:#ffffff}
    .fil1 {fill:white;fill-rule:nonzero}
    .fnt0 {font-weight:bold;font-size:98.06px;font-family:'Arial Rounded MT Bold'}
   ]]>
  </style>
 </defs>
 <g id="Layer_x0020_1">
  <metadata id="CorelCorpID_0Corel-Layer"/>
  <polygon class="fil0" points="728.89,88.07 715.68,88.07 679.46,89.35 644.52,93.19 610.43,99.15 577.62,107.67 546.08,118.33 515.83,131.11 487.7,145.6 460.86,162.22 435.71,180.54 413.13,200.14 392.25,221.45 373.93,244.03 358.16,268.32 344.96,293.47 334.3,319.46 326.2,346.73 321.51,374.43 319.81,403.4 321.51,431.95 326.2,460.08 334.3,486.93 344.96,513.34 358.16,538.49 373.93,562.35 392.25,584.93 413.13,606.24 435.71,626.27 460.86,644.17 487.7,660.78 515.83,675.27 546.08,688.06 577.62,698.71 610.43,707.23 644.52,713.2 679.46,717.03 715.68,718.31 728.89,718.31 742.53,717.88 755.31,717.03 768.52,715.75 732.73,710.64 698.21,702.97 664.97,692.74 633.44,680.39 603.18,666.32 575.06,649.71 548.64,631.8 524.78,611.78 502.62,590.04 483.44,567.04 466.4,542.32 452.34,516.75 440.83,489.48 432.73,461.78 427.62,432.81 425.92,403.4 427.62,373.58 432.73,344.6 440.83,316.9 452.34,290.05 466.4,264.06 483.44,239.77 502.62,216.34 524.78,195.03 548.64,175 575.06,156.68 603.18,140.49 633.44,126 664.97,113.64 698.21,103.84 732.73,96.17 768.52,91.06 755.31,89.78 "/>
  <path class="fil0" d="M754.46 134.95l-34.52 1.7 -32.81 5.96 -31.54 9.37 -29.83 12.78 -27.7 15.34 -25.14 18.75 -23.01 21.31 -20.03 23.44 -17.04 25.57 -13.64 27.27 -9.8 29.4 -6.39 30.68 -2.13 31.54 2.56 35.37 7.67 33.67 12.36 31.96 16.62 29.83 20.45 27.27 -3.41 -15.34 -2.98 -15.77 -1.7 -15.77 -0.43 -16.19 2.13 -31.96 6.39 -30.68 9.8 -28.98 13.64 -27.7 17.04 -25.57 20.03 -23.44 23.01 -21.3 25.14 -18.32 27.7 -15.77 29.83 -12.78 31.53 -9.38 32.81 -5.54 34.52 -2.13 161.5 0 -8.52 -9.8 -23.01 -21.31 -25.14 -18.32 -27.7 -15.77 -29.83 -12.36 -31.53 -9.37 -32.81 -5.96 -34.09 -1.7 0.01 0zm212.63 94.6l-161.5 0 36.22 2.56 35.37 6.39 32.81 10.23 31.53 14.49 28.55 17.47 26 20.88 23.43 23.44 -10.22 -28.98 -13.64 -27.7 -17.04 -25.57 -11.51 -13.21 0 0z"/>
  <path class="fil0" d="M272.08 295.17l-13.64 29.4 -11.93 30.26 -8.95 31.54 -6.82 32.38 -4.26 33.24 -1.28 34.09 1.28 32.38 3.41 31.54 6.39 30.68 8.09 29.83 10.23 28.98 12.36 27.7 14.49 26.84 16.19 25.14 17.9 24.29 19.6 22.58 21.31 21.31 23.01 20.02 24.29 17.9 25.57 16.19 26.42 14.06 28.13 12.78 28.55 10.23 30.26 8.09 30.68 5.97 31.53 3.83 31.96 1.28 33.66 -1.7 33.24 -3.83 32.38 -6.82 31.11 -8.94 30.25 -11.51 28.98 -13.63 27.7 -15.34 25.99 -17.9 24.72 -19.6 23.44 -21.74 4.26 -4.69 -253.97 0 -31.96 -1.28 -31.53 -3.41 -30.68 -5.96 -29.83 -8.1 -28.98 -10.65 -28.13 -12.36 -26.42 -14.06 -25.57 -16.19 -24.29 -18.32 -22.58 -19.6 -21.31 -21.31 -20.03 -22.58 -17.9 -24.29 -16.19 -25.57 -14.49 -26.42 -12.36 -28.13 -10.22 -28.55 -8.1 -29.83 -5.96 -30.68 -3.83 -31.54 -1.28 -32.39 0.43 -16.62 0.85 -16.62 1.7 -16.19 2.13 -16.19 -0 -0zm771.29 256.95l-15.77 27.27 -17.89 26 -19.6 24.71 -21.73 22.59 -23.01 21.31 -24.71 19.6 -26 17.47 -27.7 15.77 -28.98 13.21 -29.83 11.51 -31.11 8.94 -31.96 6.39 -32.81 3.83 -33.66 1.28 253.97 0 17.04 -18.32 19.6 -25.14 17.9 -26.42 15.77 -27.7 13.63 -28.98 11.08 -29.83 8.95 -31.53 6.82 -31.96 0.01 0z"/>
  <path class="fil0" d="M1305.01 94.47l-4.69 0 -29.4 2.13 -26.42 6.81 -22.59 11.08 -19.6 15.77 -15.34 19.17 -10.65 23.44 -6.82 26.42 -2.13 29.83 1.7 26 5.54 23.43 9.38 20.03 12.35 17.05 16.19 14.06 18.75 9.8 21.3 5.96 23.87 1.71 10.65 0 10.22 -1.28 10.23 -1.7 9.37 -2.13 9.8 -2.98 8.95 -3.41 8.95 -4.26 6.39 -3.83 -67.76 0 -20.03 -1.71 -17.47 -5.11 -15.34 -8.52 -13.21 -11.93 -10.65 -14.49 -7.24 -17.47 -4.69 -20.03 -1.28 -22.58 1.7 -23.86 4.69 -21.3 8.52 -18.33 11.5 -16.19 14.49 -13.21 16.62 -8.95 19.17 -5.97 21.31 -1.7 51.99 0 -2.98 -17.9 -11.08 -1.7 -5.11 -0.85 -10.23 -0.85 -4.69 0 -4.26 -0.43 0.03 -0.03zm49.01 132.95l-30.68 0 0.85 7.24 0.85 7.67 0.43 8.1 0.85 8.52 0.43 7.67 0 11.93 0.43 9.8 0 28.55 -5.54 2.56 -5.54 2.13 -11.08 3.41 -5.54 0.85 -5.11 0.85 -11.08 0.85 67.76 0 2.13 -1.28 -0.43 -4.69 -0.43 -3.83 0 -5.54 -0.43 -4.26 0 -5.11 -0.43 -5.96 0 -30.26 0.43 -7.67 0 -6.82 0.43 -6.82 0.43 -6.39 0.43 -5.97 0.85 -5.54 -0.01 0.01zm-10.65 -111.22l-44.74 0 7.24 0.43 7.24 0.85 6.39 0.85 6.82 1.28 6.39 1.28 5.96 1.7 5.96 2.13 -1.28 -8.52 0.02 0z"/>
  <path class="fil0" d="M1434.13 90.2l-47.73 0 1.7 28.98 0.85 16.19 0.43 20.88 0.85 25.14 0 14.06 0.43 24.29 -0.43 14.06 0 13.21 -1.28 46.45 -1.7 29.83 -0.85 14.06 33.24 0 -0.85 -22.16 -0.85 -14.06 -0.43 -19.6 -0.43 -12.36 -0.85 -15.34 0 -9.37 -0.43 -6.82 0 -13.21 1.28 0 1.28 -0.43 66.48 0 -1.7 -1.28 -5.54 -2.98 -5.54 -2.56 14.49 -3.41 11.93 -5.11 3.41 -1.7 -72.87 0 -4.69 -0.43 -3.41 0 -5.11 -0.43 0.43 -18.75 0 -60.51 0.43 -7.67 0 -8.52 2.98 -0.43 2.98 0 6.82 -0.43 85.65 0 -3.41 -3.41 -7.24 -4.69 -8.52 -3.84 -5.54 -1.7 -6.39 -1.7 -14.91 -2.56 -8.95 -0.85 -25.99 -0.85 -0.02 -0zm50.71 133.8l-59.66 0 7.25 0.43 6.81 0.85 6.39 1.28 5.97 1.7 5.54 2.56 5.54 2.98 5.11 3.83 4.69 4.26 4.69 5.11 5.12 6.81 4.69 7.67 5.11 8.52 5.54 11.5 6.82 14.91 8.09 18.75 9.37 22.16 33.66 0 -5.96 -10.65 -6.39 -11.51 -6.82 -12.78 -13.21 -26.42 -4.69 -10.23 -3.83 -7.24 -2.98 -5.12 -4.69 -6.81 -4.69 -5.97 -4.69 -5.54 -4.69 -4.69 -4.69 -4.26 -3.41 -2.13 0.01 0.03zm30.26 -114.2l-75 0 17.05 0.85 14.48 2.13 11.51 3.41 9.37 4.69 6.82 6.39 5.11 7.67 2.98 9.8 0.85 11.5 -1.28 11.93 -3.41 10.23 -5.96 8.95 -8.1 6.82 -10.65 5.54 -12.78 3.83 -15.34 2.56 -17.9 0.85 69.03 0 7.24 -4.26 8.52 -7.25 6.82 -8.52 4.69 -9.8 2.98 -11.08 0.85 -12.36 -0.85 -9.37 -1.7 -8.95 -2.98 -8.52 -4.26 -7.67 -5.11 -6.82 -2.98 -2.56 -0 0.01z"/>
  <path class="fil0" d="M1700.46 90.2l-118.89 0 2.56 44.74 1.28 46.87 0 14.06 0.43 34.94 -0.85 31.96 -0.85 30.68 -1.7 29.83 -0.85 14.49 117.19 0 5.54 -20.03 -93.32 0 0 -103.12 87.78 0 4.26 -18.75 -92.04 0 0 -86.08 93.32 0 -3.83 -19.6 -0.02 0zm5.54 222.44l-9.8 1.28 -37.93 3.41 -9.37 0 -9.38 0.43 64.77 0 1.7 -5.11 0.01 -0.01zm-7.24 -98.01l-52.84 0 18.75 0.85 8.52 0.85 8.52 0.43 8.09 0.85 7.67 1.28 1.28 -4.26 0.01 0zm5.54 -104.83l-57.53 0 35.8 1.7 8.1 0.85 7.24 1.28 6.82 0.85 -0.43 -4.69 0 0.01z"/>
  <path class="fil0" d="M1868.33 90.2l-118.89 0 2.56 44.74 1.28 46.87 0 14.06 0.43 34.94 -0.85 31.96 -0.85 30.68 -1.7 29.83 -0.85 14.49 117.19 0 5.54 -20.03 -93.32 0 0 -103.12 87.78 0 4.26 -18.75 -92.04 0 0 -86.08 93.32 0 -3.83 -19.6 -0.02 0zm5.54 222.44l-9.8 1.28 -37.93 3.41 -9.37 0 -9.38 0.43 64.77 0 1.7 -5.11 0.01 -0.01zm-7.24 -98.01l-52.84 0 18.75 0.85 8.52 0.85 8.52 0.43 8.09 0.85 7.67 1.28 1.28 -4.26 0.01 0zm5.54 -104.83l-57.53 0 35.8 1.7 8.1 0.85 7.24 1.28 6.82 0.85 -0.43 -4.69 0 0.01z"/>
  <path class="fil0" d="M1964.22 90.2l-40.91 0 0.85 14.49 0.85 14.92 0.85 26.42 0 13.21 0.43 8.52 0 51.56 -0.43 16.19 -0.85 35.37 -1.71 34.94 -1.28 16.62 -1.28 15.34 33.66 0 -1.28 -15.34 -0.85 -16.62 -0.85 -17.47 0 -1.7 -0.85 -19.18 -0.43 -22.58 -0.43 -28.55 -0.43 -20.45 0 -83.95 26.85 0 -11.93 -21.73 0.01 -0.01zm11.93 21.73l-26.85 0 31.96 55.82 67.75 120.59 27.27 49.43 40.48 0 -0.85 -12.36 -0.43 -11.5 -24.71 0 -15.34 -25.57 -14.92 -26.42 -15.34 -26.42 -47.3 -84.37 -16.62 -29.83 -5.11 -9.37 0 0zm142.75 -21.73l-32.81 0 1.28 14.49 0.85 16.62 0.85 16.62 0.85 19.17 0.43 21.73 0 29.41 0.43 24.71 0 80.96 24.71 0 0 -0.85 -0.85 -13.21 -0.43 -11.5 0 -16.19 -0.43 -15.34 0 -70.31 0.43 -17.9 0.85 -17.47 0.43 -15.77 1.28 -15.76 0.85 -15.34 1.28 -14.06 0 -0z"/>
  <path class="fil0" d="M2208.39 95.32l-33.24 0 0.85 15.34 0.85 14.49 0.85 15.34 1.28 46.45 0.43 16.19 0 32.81 -1.28 47.72 -0.43 15.34 -1.28 24.29 -1.28 19.6 120.59 0 5.97 -19.6 -97.16 0 0 -76.7 0.43 -28.98 0 -30.68 0.43 -19.18 0.85 -20.88 0.43 -19.18 0.85 -17.47 0.85 -14.92 0.01 0.03zm95.02 222.87l-9.8 0.85 -9.37 1.28 -19.18 1.71 -18.75 0.85 -9.37 0 -9.38 0.43 74.15 0 1.7 -5.11 0 -0.01z"/>
  <path class="fil0" d="M2403.13 92.76l-10.23 28.98 -10.23 29.41 -11.08 30.25 -11.93 31.11 -12.36 31.54 -12.78 32.39 -13.64 32.81 -14.06 33.67 33.24 0 2.56 -10.23 2.13 -10.23 2.56 -9.8 2.98 -10.23 5.96 -19.6 3.41 -9.8 3.41 -9.37 120.17 0 -4.26 -11.93 -2.55 -7.67 -106.11 0 5.96 -16.19 5.54 -15.77 5.11 -15.34 5.54 -14.92 5.11 -14.48 10.22 -28.13 5.11 -13.63 24.29 0 -0.43 -0.43 -8.95 -31.54 -14.06 0 -1.28 -0.43 -9.37 -0.43 0.01 -0.02zm80.11 170.88l-27.27 0 5.97 17.9 3.41 9.37 2.98 9.8 5.97 20.45 3.4 10.65 2.99 11.08 34.51 0 -12.78 -30.26 -11.93 -30.26 -7.24 -18.75 -0.01 0.02zm-46.02 -138.06l-24.29 0 5.11 16.19 5.11 15.77 4.69 15.34 22.16 71.16 26.43 0 -8.95 -23.44 -10.66 -31.53 -10.22 -31.96 -9.37 -31.53 -0.01 0zm-9.8 -32.81l-5.11 0.43 -3.83 0 -1.7 0.43 11.08 0 -0.43 -0.85 -0.01 -0.01z"/>
  <path class="fil0" d="M2588.07 92.33l-40.91 0 0.85 14.49 0.85 14.92 0.85 26.42 0 13.21 0.43 8.52 0 51.56 -0.43 16.19 -0.85 35.37 -1.7 34.94 -1.28 16.62 -1.28 15.34 33.66 0 -1.28 -15.34 -0.85 -16.62 -0.85 -17.47 -0.43 -1.7 -0.43 -19.17 -0.43 -22.59 -0.43 -28.55 -0.43 -20.45 0 -83.94 26.85 0 -11.93 -21.74 0.01 -0.01zm11.93 21.74l-26.85 0 31.96 55.82 67.75 120.59 27.28 49.43 40.48 0 -0.85 -12.35 -0.43 -11.51 -24.72 0 -15.34 -25.57 -14.92 -26.42 -15.34 -26.42 -47.3 -84.37 -16.62 -29.83 -5.11 -9.37 0.01 0.01zm142.75 -21.74l-32.81 0 1.28 14.49 0.85 16.62 0.85 16.62 0.85 19.17 0.43 21.73 0 29.41 0.43 24.71 0 80.96 24.72 0 0 -0.85 -0.85 -13.21 -0.43 -13.21 -0.43 -14.49 0 -85.65 0.43 -17.9 0.85 -17.47 0.43 -15.77 1.28 -15.76 0.85 -15.34 1.28 -14.06 -0.01 0z"/>
  <path class="fil0" d="M2923 90.2l-118.89 0 2.56 44.74 1.27 46.87 0 14.06 0.43 34.94 -0.85 31.96 -0.84 30.68 -1.71 29.83 -0.85 14.49 117.18 0 5.54 -20.03 -93.32 0 0 -103.12 87.78 0 4.26 -18.75 -92.04 0 0 -86.08 93.32 0 -3.83 -19.6 -0.01 0zm5.54 222.44l-9.8 1.28 -37.93 3.41 -9.38 0 -9.37 0.43 64.76 0 1.7 -5.11 0.02 -0.01zm-7.24 -98.01l-52.83 0 18.74 0.85 8.52 0.85 8.52 0.43 8.1 0.85 7.67 1.28 1.28 -4.26 0 0zm5.54 -104.83l-57.53 0 35.8 1.7 8.11 0.85 7.24 1.28 7.24 0.85 -0.85 -4.69 -0.01 0.01z"/>
  <path class="fil0" d="M1296.92 383.8l-9.37 0 -23.01 1.7 -20.88 5.96 -17.9 10.23 -15.76 13.64 -12.79 17.04 -8.94 20.03 -5.54 22.58 -1.71 25.57 1.71 22.59 4.26 20.03 7.67 17.47 11.08 15.34 13.21 11.93 15.77 8.95 17.47 5.11 19.6 1.7 15.34 -0.85 7.24 -1.28 7.24 -1.7 6.82 -2.13 6.39 -2.56 6.39 -2.98 5.54 -3.41 1.7 -23.01 -46.02 0 -12.79 -0.85 -11.08 -3.41 -9.37 -5.96 -8.09 -7.67 -6.39 -10.22 -4.69 -11.93 -2.98 -14.06 -0.85 -15.76 1.28 -16.62 2.98 -14.49 5.54 -12.78 7.24 -11.08 8.95 -8.95 10.65 -6.39 12.35 -3.83 14.06 -1.28 38.78 0 -3.83 -32.38 -4.26 -0.85 -4.69 -0.85 -4.26 -0.85 -4.69 -0.85 -9.37 -0.85 0.02 -0.04zm33.24 165.34l-6.39 3.83 -5.97 3.41 -6.39 2.98 -5.96 2.13 -5.54 2.13 -5.96 1.28 -5.96 0.85 40.48 0 1.7 -16.62 -0.01 0.01zm-2.13 -128.69l-38.78 0 10.23 0.85 5.11 0.85 4.69 0.85 5.11 1.28 5.11 1.7 4.69 2.13 5.11 2.13 -1.28 -9.8 0.01 0.01zm119.32 -36.65l-20.88 1.7 -18.75 5.54 -16.19 9.37 -14.06 12.79 -11.08 16.19 -8.1 18.75 -4.69 21.73 -1.7 24.29 1.7 24.29 4.69 21.3 8.1 18.75 11.08 16.19 14.06 12.78 16.19 9.37 18.75 5.54 20.88 1.7 20.88 -1.7 18.75 -5.54 16.62 -9.37 14.06 -12.78 3.83 -5.54 -74.15 0 -11.93 -1.28 -10.23 -3.41 -8.52 -5.96 -7.24 -8.1 -5.54 -10.65 -3.84 -13.21 -2.56 -14.92 -0.43 -17.47 0.43 -17.9 2.56 -15.34 3.84 -12.79 5.54 -10.65 7.24 -8.1 8.52 -5.96 10.23 -3.41 11.93 -1.28 51.13 0 0 -21.31 -11.5 -6.39 -18.75 -5.54 -20.88 -1.7 0.01 0.02zm51.13 13.63l0 96.73 -0.85 17.04 -2.56 15.34 -3.83 12.78 -5.54 10.65 -7.24 8.52 -8.95 5.96 -10.23 3.41 -11.93 1.28 74.15 0 7.24 -10.65 8.09 -18.75 4.69 -21.3 1.7 -24.29 -1.7 -24.29 -4.69 -21.73 -8.09 -18.75 -7.24 -10.65 -3.83 -5.54 -14.06 -12.79 -5.11 -2.98 -0.02 0.01zm0 21.31l-51.13 0 11.93 1.28 10.23 3.41 8.95 5.96 7.24 8.52 5.54 10.65 3.83 12.78 2.56 15.34 0.85 17.47 0 -75.42 0 0.02z"/>
  <path class="fil0" d="M1633.13 388.07l-53.27 0 1.28 14.91 1.7 27.28 0.85 13.21 0.85 25.57 0 52.84 -0.85 26.84 -0.85 14.06 -0.85 11.93 -0.85 12.78 -1.28 12.36 122.72 0 5.54 -32.39 -79.69 0 0 -51.56 0.43 -22.58 0 -20.46 0.85 -19.17 0.43 -17.9 1.7 -33.24 1.28 -14.48 0.01 0.01zm75.42 174.71l-7.24 0.85 -7.67 1.28 -7.67 0.43 -7.67 0.85 -15.77 0.85 -8.09 0 -8.1 0.43 61.79 0 0.43 -4.69 -0.01 0zm80.54 -174.71l-53.27 0 1.28 14.91 1.7 27.28 0.85 13.21 0.85 25.57 0 52.84 -0.85 26.84 -0.85 14.06 -0.85 11.93 -0.85 12.78 -1.28 12.36 122.72 0 5.54 -32.39 -79.68 0 0 -74.14 0.43 -24.29 0.43 -15.34 0.85 -17.9 1.71 -33.24 1.28 -14.48 -0 0.01zm75.43 174.71l-7.24 0.85 -7.67 1.28 -7.67 0.43 -8.09 0.85 -15.77 0.85 -7.67 0 -8.1 0.43 61.79 0 0.43 -4.69 -0.01 0zm148.72 -174.71l-121.02 0 0.85 14.48 1.28 14.06 0.85 13.64 1.28 38.78 0.43 12.36 0 26.42 -0.85 27.7 -0.85 26.42 -0.85 12.79 -1.28 12.78 -0.85 12.36 119.74 0 5.54 -31.54 -77.13 0 0 -65.2 70.74 0 5.54 -31.11 -76.28 0 0 -52.41 75.85 0 -2.98 -31.53 -0.01 0zm5.11 175.99l-8.09 0.85 -8.1 1.28 -8.1 0.43 -7.67 0.85 -15.76 0.85 46.87 0 0.85 -4.26 -0 0zm-7.24 -60.94l-38.35 0 31.53 2.13 6.39 0.85 0.43 -2.98zm5.11 -83.52l-40.91 0 20.88 1.28 13.63 1.7 6.82 1.28 -0.43 -4.26 0.01 0zm152.55 -34.09l-4.69 0 -25.57 2.13 -23.01 5.97 -19.6 9.8 -17.05 13.63 -13.63 17.05 -9.38 20.03 -5.96 23.01 -1.7 25.99 1.28 21.31 5.11 19.6 8.1 17.04 11.08 14.91 14.06 12.36 15.76 8.95 17.47 5.11 19.6 1.7 9.37 0 17.9 -2.56 9.37 -2.56 9.37 -2.98 8.95 -3.41 9.37 -4.26 8.95 -4.69 -0.43 -5.11 0 -5.11 -0.43 -5.11 -63.92 0 -11.93 -0.85 -10.65 -3.83 -9.38 -5.97 -8.52 -8.52 -6.82 -10.23 -5.11 -11.93 -2.56 -13.63 -1.28 -14.92 1.28 -16.62 3.41 -14.91 5.97 -12.78 8.09 -11.51 10.23 -8.95 11.93 -6.81 13.21 -3.83 14.49 -1.28 42.19 0 -3.41 -31.96 -4.26 -0.85 -4.69 -0.85 -4.26 -0.85 -18.32 -1.7 0.04 -0.02zm45.17 113.78l-45.59 0 0.85 5.54 0.43 5.54 0.85 6.39 0.43 5.97 0.85 13.63 0 26.85 -3.83 1.7 -3.84 1.28 -7.24 1.7 -3.84 0.43 60.09 0 -0.43 -9.8 0 -25.14 0.85 -20.88 0.43 -13.21 -0.01 0zm-10.23 -77.56l-36.65 0 5.54 0.43 5.54 0.85 11.08 2.56 5.11 1.7 5.54 2.13 5.11 2.56 -1.28 -10.23 0.01 0z"/>
  <path class="fil0" d="M2381.39 388.91l-121.02 0 0.85 14.49 1.7 27.7 0.85 13.21 0.85 25.57 0.43 12.35 0 26.42 -0.85 27.7 -0.43 13.21 -1.28 19.6 -1.28 19.18 -0.85 12.36 119.74 0 5.54 -31.54 -77.56 0 0 -65.19 71.16 0 5.11 -31.11 -76.27 0 0 -52.41 76.27 0 -2.98 -31.54 0.02 0zm5.11 175.99l-32.39 3.41 -15.34 0.85 46.87 0 0.85 -4.26 0.01 0zm-7.24 -60.94l-38.35 0 31.53 2.13 5.96 0.85 0.85 -2.98 0.01 0zm5.11 -83.52l-40.91 0 20.88 1.28 13.63 1.7 6.82 1.28 -0.43 -4.26 0.01 0z"/>
  <path class="fil1" d="M1191.78 824.75l0 -97.63 70.5 0 0 11.45 -57.54 0 0 30 53.86 0 0 11.45 -53.86 0 0 33.27 59.86 0 0 11.46 -72.82 0zm789.79 -35.39c0,-13.07 3.63,-22.75 10.93,-29.05 6.07,-5.22 13.5,-7.84 22.25,-7.84 9.7,0 17.66,3.18 23.84,9.55 6.16,6.34 9.25,15.13 9.25,26.34 0,9.09 -1.36,16.23 -4.09,21.43 -2.73,5.2 -6.7,9.25 -11.93,12.13 -5.2,2.89 -10.91,4.32 -17.07,4.32 -9.91,0 -17.91,-3.16 -24.02,-9.5 -6.11,-6.34 -9.16,-15.48 -9.16,-27.39l0.01 0.01zm12.27 0.02c0,9.05 1.98,15.82 5.93,20.3 3.98,4.5 8.95,6.75 14.98,6.75 5.96,0 10.91,-2.25 14.89,-6.77 3.96,-4.52 5.93,-11.41 5.93,-20.66 0,-8.72 -2,-15.34 -5.98,-19.81 -3.98,-4.5 -8.93,-6.75 -14.84,-6.75 -6.02,0 -11,2.23 -14.98,6.7 -3.95,4.48 -5.93,11.23 -5.93,20.25l0 -0zm114.29 35.37l0 -10.52c-5.5,8.02 -12.96,12.02 -22.39,12.02 -4.16,0 -8.05,-0.8 -11.66,-2.39 -3.61,-1.61 -6.3,-3.61 -8.05,-6.02 -1.75,-2.43 -2.98,-5.39 -3.68,-8.89 -0.48,-2.36 -0.72,-6.09 -0.72,-11.19l0 -43.79 12 0 0 39.16c0,6.25 0.25,10.48 0.73,12.64 0.75,3.16 2.34,5.61 4.79,7.41 2.43,1.79 5.43,2.7 9.02,2.7 3.59,0 6.96,-0.91 10.09,-2.75 3.14,-1.84 5.36,-4.36 6.68,-7.52 1.3,-3.16 1.96,-7.77 1.96,-13.8l0 -37.84 12 0 0 70.77 -10.77 0 0 0zm29.47 0l0 -70.77 10.77 0 0 10.84c2.75,-5.02 5.3,-8.34 7.64,-9.93 2.34,-1.61 4.91,-2.41 7.7,-2.41 4.04,0 8.16,1.27 12.34,3.8l-4.27 11.07c-2.91,-1.63 -5.82,-2.45 -8.73,-2.45 -2.61,0 -4.95,0.8 -7.02,2.36 -2.07,1.57 -3.55,3.75 -4.43,6.55 -1.34,4.25 -2,8.91 -2,13.98l0 36.98 -12 0 -0 -0.02zm84.93 0l0 -97.63 36.86 0c6.48,0 11.43,0.32 14.86,0.93 4.8,0.8 8.82,2.31 12.07,4.54 3.25,2.25 5.86,5.39 7.84,9.41 1.98,4.02 2.96,8.45 2.96,13.3 0,8.27 -2.64,15.29 -7.93,21.02 -5.27,5.75 -14.84,8.61 -28.66,8.61l-25.05 0 0 39.82 -12.95 0 0 0zm12.95 -51.27l25.23 0c8.36,0 14.27,-1.55 17.8,-4.66 3.5,-3.11 5.25,-7.48 5.25,-13.14 0,-4.07 -1.03,-7.57 -3.09,-10.48 -2.07,-2.91 -4.8,-4.84 -8.16,-5.77 -2.18,-0.57 -6.2,-0.87 -12.04,-0.87l-24.98 0 0 34.91 -0 0.02zm-965.44 51.27l25.84 -36.66 -23.93 -34.11 14.75 0 11.18 16.7c2.07,3.13 3.7,5.68 4.87,7.68 2.02,-2.84 3.81,-5.41 5.43,-7.7l11.77 -16.68 14.66 0 -24.07 34.11 25.63 36.66 -14.59 0 -14.64 -21.82 -3.34 -5.25 -18.91 27.07 -14.66 0 0.01 -0zm76.36 27.13l0 -97.91 10.91 0 0 9.3c2.57,-3.59 5.48,-6.3 8.73,-8.09 3.23,-1.8 7.16,-2.7 11.77,-2.7 6.05,0 11.36,1.54 15.98,4.66 4.61,3.09 8.09,7.48 10.46,13.11 2.34,5.66 3.52,11.84 3.52,18.59 0,7.2 -1.3,13.7 -3.89,19.5 -2.59,5.77 -6.36,10.2 -11.31,13.3 -4.93,3.07 -10.14,4.61 -15.59,4.61 -4,0 -7.59,-0.84 -10.75,-2.52 -3.18,-1.68 -5.77,-3.8 -7.82,-6.36l0 34.52 -12 0 -0.01 -0.01zm10.91 -62.09c0,9.07 1.84,15.77 5.5,20.11 3.68,4.34 8.14,6.52 13.37,6.52 5.31,0 9.86,-2.25 13.63,-6.75 3.8,-4.5 5.68,-11.45 5.68,-20.88 0,-9 -1.84,-15.73 -5.54,-20.21 -3.7,-4.48 -8.11,-6.7 -13.25,-6.7 -5.09,0 -9.59,2.39 -13.5,7.13 -3.93,4.78 -5.89,11.69 -5.89,20.78l-0 0zm113.2 12.04l12.41 1.64c-1.93,7.2 -5.55,12.81 -10.82,16.8 -5.27,3.98 -12,5.98 -20.2,5.98 -10.31,0 -18.5,-3.19 -24.54,-9.55 -6.04,-6.34 -9.07,-15.27 -9.07,-26.75 0,-11.86 3.04,-21.09 9.16,-27.64 6.11,-6.57 14.04,-9.84 23.8,-9.84 9.43,0 17.13,3.2 23.11,9.63 5.98,6.43 8.98,15.48 8.98,27.14 0,0.7 -0.02,1.77 -0.07,3.18l-52.7 0c0.46,7.75 2.64,13.7 6.59,17.82 3.93,4.11 8.86,6.18 14.75,6.18 4.39,0 8.14,-1.16 11.23,-3.48 3.11,-2.32 5.57,-6.02 7.39,-11.11l-0.02 -0zm-39.27 -19.23l39.41 0c-0.52,-5.95 -2.05,-10.41 -4.52,-13.39 -3.8,-4.61 -8.75,-6.93 -14.82,-6.93 -5.5,0 -10.11,1.84 -13.86,5.52 -3.73,3.68 -5.8,8.61 -6.2,14.79l-0.01 0.01zm66.7 42.14l0 -70.77 10.78 0 0 10.84c2.75,-5.02 5.3,-8.34 7.63,-9.93 2.34,-1.61 4.91,-2.41 7.7,-2.41 4.04,0 8.16,1.27 12.34,3.8l-4.27 11.07c-2.91,-1.63 -5.82,-2.45 -8.72,-2.45 -2.61,0 -4.96,0.8 -7.02,2.36 -2.07,1.57 -3.54,3.75 -4.43,6.55 -1.34,4.25 -2,8.91 -2,13.98l0 36.98 -12 0 -0.01 -0.02zm45.54 -84l0 -13.63 12 0 0 13.63 -12 0zm0 84l0 -70.77 12 0 0 70.77 -12 0zm78.57 -22.91l12.41 1.64c-1.93,7.2 -5.55,12.81 -10.82,16.8 -5.27,3.98 -12,5.98 -20.2,5.98 -10.31,0 -18.5,-3.19 -24.55,-9.55 -6.04,-6.34 -9.07,-15.27 -9.07,-26.75 0,-11.86 3.04,-21.09 9.16,-27.64 6.11,-6.57 14.04,-9.84 23.79,-9.84 9.43,0 17.13,3.2 23.11,9.63 5.98,6.43 8.98,15.48 8.98,27.14 0,0.7 -0.02,1.77 -0.07,3.18l-52.7 0c0.46,7.75 2.64,13.7 6.59,17.82 3.93,4.11 8.86,6.18 14.74,6.18 4.38,0 8.13,-1.16 11.22,-3.48 3.11,-2.32 5.57,-6.02 7.39,-11.11l0.01 -0zm-39.27 -19.23l39.41 0c-0.52,-5.95 -2.05,-10.41 -4.52,-13.39 -3.8,-4.61 -8.75,-6.93 -14.82,-6.93 -5.5,0 -10.11,1.84 -13.85,5.52 -3.73,3.68 -5.8,8.61 -6.2,14.79l-0.01 0.01zm66.83 42.14l0 -70.77 10.77 0 0 10.05c5.18,-7.7 12.69,-11.55 22.48,-11.55 4.28,0 8.18,0.78 11.75,2.3 3.57,1.52 6.25,3.54 8.02,6.02 1.77,2.48 3.02,5.43 3.72,8.84 0.43,2.23 0.66,6.11 0.66,11.66l0 43.46 -12 0 0 -43c0,-4.89 -0.45,-8.55 -1.39,-10.95 -0.93,-2.41 -2.59,-4.34 -4.95,-5.8 -2.36,-1.43 -5.16,-2.16 -8.34,-2.16 -5.09,0 -9.48,1.61 -13.18,4.87 -3.71,3.22 -5.55,9.39 -5.55,18.43l0 38.61 -12 0 0.01 -0.01zm122.06 -25.91l11.73 1.64c-1.3,8.07 -4.57,14.36 -9.87,18.93 -5.3,4.57 -11.81,6.84 -19.52,6.84 -9.66,0 -17.43,-3.16 -23.3,-9.48 -5.89,-6.31 -8.82,-15.36 -8.82,-27.13 0,-7.63 1.28,-14.3 3.8,-20.02 2.52,-5.7 6.37,-10 11.55,-12.84 5.16,-2.87 10.77,-4.3 16.86,-4.3 7.66,0 13.95,1.93 18.81,5.82 4.89,3.89 8.02,9.41 9.39,16.54l-11.59 1.77c-1.11,-4.75 -3.07,-8.31 -5.91,-10.72 -2.82,-2.39 -6.23,-3.59 -10.23,-3.59 -6.04,0 -10.95,2.16 -14.75,6.48 -3.77,4.34 -5.66,11.16 -5.66,20.52 0,9.5 1.81,16.38 5.45,20.68 3.66,4.3 8.41,6.46 14.25,6.46 4.73,0 8.66,-1.43 11.8,-4.32 3.16,-2.86 5.16,-7.3 6,-13.27l0.01 -0.01zm68.86 3l12.41 1.64c-1.93,7.2 -5.55,12.81 -10.82,16.8 -5.27,3.98 -12,5.98 -20.2,5.98 -10.32,0 -18.5,-3.19 -24.55,-9.55 -6.04,-6.34 -9.07,-15.27 -9.07,-26.75 0,-11.86 3.04,-21.09 9.16,-27.64 6.11,-6.57 14.04,-9.84 23.8,-9.84 9.43,0 17.13,3.2 23.11,9.63 5.98,6.43 8.98,15.48 8.98,27.14 0,0.7 -0.02,1.77 -0.07,3.18l-52.7 0c0.46,7.75 2.64,13.7 6.59,17.82 3.93,4.11 8.86,6.18 14.75,6.18 4.38,0 8.13,-1.16 11.22,-3.48 3.11,-2.32 5.57,-6.02 7.39,-11.11l0 -0zm-39.27 -19.23l39.41 0c-0.52,-5.95 -2.05,-10.41 -4.52,-13.39 -3.8,-4.61 -8.75,-6.93 -14.82,-6.93 -5.5,0 -10.11,1.84 -13.86,5.52 -3.73,3.68 -5.8,8.61 -6.2,14.79l-0.01 0.01zm131.29 42.14l0 -41.36 -37.63 -56.27 15.54 0 19.3 29.54c3.59,5.48 6.93,10.95 9.98,16.43 2.98,-5.11 6.59,-10.84 10.8,-17.2l18.91 -28.77 15.07 0 -39 56.27 0 41.36 -12.95 0 -0.02 0zm384.49 -64.44c6.06,-5.22 13.5,-7.84 22.24,-7.84 21.37,0 33.09,15.42 33.09,35.89 0,9.09 -1.36,16.23 -4.09,21.43 -2.73,5.2 -6.7,9.25 -11.93,12.13 -5.2,2.89 -10.91,4.32 -17.07,4.32 -9.91,0 -17.91,-3.16 -24.02,-9.5 -6.11,-6.34 -9.16,-15.48 -9.16,-27.39 0,0 7.22,-25.82 10.94,-29.04zm1.34 29.07c0,9.05 1.98,15.82 5.93,20.3 3.98,4.5 8.95,6.75 14.97,6.75 5.96,0 10.91,-2.25 14.89,-6.77 3.96,-4.52 5.93,-11.41 5.93,-20.66 0,-8.72 -2,-15.34 -5.98,-19.81 -3.98,-4.5 -8.93,-6.75 -14.84,-6.75 -6.02,0 -11,2.23 -14.97,6.7 -3.96,4.48 -5.93,11.23 -5.93,20.25l0 -0zm94.11 24.66l1.63 10.59c-3.36,0.7 -6.39,1.07 -9.02,1.07 -4.34,0 -7.7,-0.68 -10.11,-2.07 -2.39,-1.39 -4.07,-3.18 -5.05,-5.43 -0.98,-2.25 -1.45,-6.98 -1.45,-14.18l0 -40.77 -8.86 0 0 -9.27 8.86 0 0 -17.5 12 -7.2 0 24.7 12 0 0 9.27 -12 0 0 41.45c0,3.43 0.2,5.64 0.63,6.61 0.41,0.98 1.09,1.75 2.05,2.34 0.95,0.57 2.32,0.87 4.09,0.87 1.32,0 3.07,-0.16 5.23,-0.48l0 0zm57.38 -12.2l12.41 1.64c-1.93,7.2 -5.55,12.81 -10.82,16.8 -5.27,3.98 -12,5.98 -20.2,5.98 -10.32,0 -18.5,-3.19 -24.55,-9.55 -6.04,-6.34 -9.07,-15.27 -9.07,-26.75 0,-11.86 3.04,-21.09 9.16,-27.64 6.11,-6.57 14.04,-9.84 23.79,-9.84 9.43,0 17.13,3.2 23.11,9.63 5.98,6.43 8.98,15.48 8.98,27.14 0,0.7 -0.02,1.77 -0.07,3.18l-52.7 0c0.46,7.75 2.64,13.7 6.59,17.82 3.93,4.11 8.86,6.18 14.75,6.18 4.38,0 8.13,-1.16 11.22,-3.48 3.11,-2.32 5.57,-6.02 7.39,-11.11l0.01 -0zm-39.27 -19.23l39.41 0c-0.52,-5.95 -2.05,-10.41 -4.52,-13.39 -3.8,-4.61 -8.75,-6.93 -14.82,-6.93 -5.5,0 -10.11,1.84 -13.86,5.52 -3.72,3.68 -5.8,8.61 -6.2,14.79l-0.01 0.01zm66.83 42.14l0 -70.77 10.77 0 0 10.05c5.18,-7.7 12.69,-11.55 22.48,-11.55 4.28,0 8.19,0.78 11.75,2.3 3.57,1.52 6.25,3.54 8.02,6.02 1.77,2.48 3.02,5.43 3.72,8.84 0.43,2.23 0.66,6.11 0.66,11.66l0 43.46 -12 0 0 -43c0,-4.89 -0.46,-8.55 -1.39,-10.95 -0.93,-2.41 -2.59,-4.34 -4.95,-5.8 -2.36,-1.43 -5.16,-2.16 -8.34,-2.16 -5.09,0 -9.48,1.61 -13.18,4.87 -3.71,3.22 -5.55,9.39 -5.55,18.43l0 38.61 -12 0 0.01 -0.01zm101.88 -10.7l1.64 10.59c-3.37,0.7 -6.39,1.07 -9.02,1.07 -4.34,0 -7.7,-0.68 -10.11,-2.07 -2.39,-1.39 -4.07,-3.18 -5.04,-5.43 -0.98,-2.25 -1.46,-6.98 -1.46,-14.18l0 -40.77 -8.86 0 0 -9.27 8.86 0 0 -17.5 12 -7.2 0 24.7 12 0 0 9.27 -12 0 0 41.45c0,3.43 0.2,5.64 0.64,6.61 0.41,0.98 1.09,1.75 2.04,2.34 0.96,0.57 2.32,0.87 4.09,0.87 1.32,0 3.07,-0.16 5.23,-0.48l-0.01 0zm11.84 -73.3l0 -13.63 12 0 0 13.63 -12 0zm0 84l0 -70.77 12 0 0 70.77 -12 0zm76.52 -8.87c-4.46,3.8 -8.75,6.46 -12.87,8.02 -4.11,1.57 -8.52,2.34 -13.25,2.34 -7.77,0 -13.75,-1.89 -17.93,-5.69 -4.18,-3.77 -6.27,-8.61 -6.27,-14.5 0,-3.45 0.8,-6.61 2.36,-9.48 1.59,-2.86 3.66,-5.13 6.21,-6.86 2.57,-1.73 5.43,-3.04 8.63,-3.93 2.37,-0.61 5.93,-1.21 10.68,-1.8 9.68,-1.14 16.84,-2.53 21.41,-4.11 0.04,-1.64 0.07,-2.68 0.07,-3.11 0,-4.87 -1.14,-8.3 -3.41,-10.3 -3.07,-2.7 -7.64,-4.05 -13.69,-4.05 -5.66,0 -9.84,1 -12.52,2.98 -2.71,1.98 -4.68,5.48 -5.98,10.52l-11.73 -1.63c1.07,-5.02 2.82,-9.09 5.27,-12.19 2.45,-3.09 6,-5.45 10.64,-7.13 4.61,-1.66 10,-2.5 16.09,-2.5 6.05,0 10.98,0.7 14.78,2.14 3.77,1.43 6.57,3.2 8.34,5.36 1.77,2.16 3.02,4.89 3.75,8.18 0.39,2.04 0.59,5.72 0.59,11.02l0 15.91c0,11.11 0.25,18.14 0.75,21.11 0.48,2.98 1.48,5.82 2.93,8.55l-12.55 0c-1.2,-2.52 -1.98,-5.48 -2.31,-8.87l0.01 0.02zm-0.96 -26.59c-4.36,1.77 -10.91,3.27 -19.63,4.5 -4.96,0.7 -8.46,1.5 -10.5,2.39 -2.05,0.89 -3.61,2.18 -4.73,3.86 -1.11,1.7 -1.68,3.59 -1.68,5.68 0,3.16 1.2,5.82 3.64,7.93 2.43,2.11 5.98,3.19 10.63,3.19 4.61,0 8.73,-1 12.34,-3.02 3.59,-2 6.25,-4.75 7.93,-8.22 1.3,-2.71 1.93,-6.69 1.93,-11.93l0.07 -4.36 0 -0.02zm30.3 35.45l0 -97.63 12 0 0 97.63 -12 0z"/>
  <text  x="1186.86" y="957.01" style="fill: black;" class="fnt0"> Experience Your Potential</text>
<text x="1186.86" y="957.01" style="fill: black;"  class="fil2 fnt0">GDE No. 700400313 | Since 2009.</text>
  <text x="1186.86" y="1070.5" style="fill: black;" class="fil3 fnt0">.</text>
 </g>
</svg>
